{
  "accessors": [
    {
      "name": "Line132_1_0_positions",
      "componentType": 5126,
      "count": 2945,
      "min": [
        10342.779296875,
        130.0594024658203,
        -1355.2281494140625
      ],
      "max": [
        10422.154296875,
        148.04600524902344,
        -1275.8533935546875
      ],
      "type": "VEC3",
      "bufferView": 0,
      "byteOffset": 0
    },
    {
      "name": "Line132_1_0_normals",
      "componentType": 5126,
      "count": 2945,
      "min": [
        -0.9832236170768738,
        0.182394340634346,
        -0.9832236170768738
      ],
      "max": [
        0.9832236170768738,
        1,
        0.9832236170768738
      ],
      "type": "VEC3",
      "bufferView": 1,
      "byteOffset": 0
    },
    {
      "name": "Line132_1_0_texcoords",
      "componentType": 5126,
      "count": 2945,
      "min": [
        0.004399999976158142,
        0.004399999976158142
      ],
      "max": [
        0.9955999851226807,
        0.9955999851226807
      ],
      "type": "VEC2",
      "bufferView": 2,
      "byteOffset": 0
    },
    {
      "name": "Line132_1_0_indices",
      "componentType": 5123,
      "count": 8256,
      "min": [
        0
      ],
      "max": [
        2944
      ],
      "type": "SCALAR",
      "bufferView": 3,
      "byteOffset": 0
    },
    {
      "name": "Line132_1_1_positions",
      "componentType": 5126,
      "count": 2048,
      "min": [
        10342.466796875,
        145.0594024658203,
        -1355.540771484375
      ],
      "max": [
        10422.466796875,
        148.04600524902344,
        -1275.540771484375
      ],
      "type": "VEC3",
      "bufferView": 0,
      "byteOffset": 35340
    },
    {
      "name": "Line132_1_1_normals",
      "componentType": 5126,
      "count": 2048,
      "min": [
        -0.9992777705192566,
        -0.9982485771179199,
        -0.9992777705192566
      ],
      "max": [
        0.9992777705192566,
        0.9987215995788574,
        0.9992777705192566
      ],
      "type": "VEC3",
      "bufferView": 1,
      "byteOffset": 35340
    },
    {
      "name": "Line132_1_1_texcoords",
      "componentType": 5126,
      "count": 2048,
      "min": [
        0.0005000000237487257,
        0.0005000000237487257
      ],
      "max": [
        0.9994999766349792,
        0.9994999766349792
      ],
      "type": "VEC2",
      "bufferView": 2,
      "byteOffset": 23560
    },
    {
      "name": "Line132_1_1_indices",
      "componentType": 5123,
      "count": 5760,
      "min": [
        0
      ],
      "max": [
        2047
      ],
      "type": "SCALAR",
      "bufferView": 3,
      "byteOffset": 16512
    },
    {
      "name": "Line132_1_2_positions",
      "componentType": 5126,
      "count": 3968,
      "min": [
        10342.9501953125,
        128.48019409179688,
        -1355.056884765625
      ],
      "max": [
        10421.9833984375,
        145.95339965820312,
        -1276.024658203125
      ],
      "type": "VEC3",
      "bufferView": 0,
      "byteOffset": 59916
    },
    {
      "name": "Line132_1_2_normals",
      "componentType": 5126,
      "count": 3968,
      "min": [
        -0.998469889163971,
        -0.9984555244445801,
        -0.9984643459320068
      ],
      "max": [
        0.998469889163971,
        -0.05529772862792015,
        0.998469889163971
      ],
      "type": "VEC3",
      "bufferView": 1,
      "byteOffset": 59916
    },
    {
      "name": "Line132_1_2_texcoords",
      "componentType": 5126,
      "count": 3968,
      "min": [
        0.006500000134110451,
        0.006500000134110451
      ],
      "max": [
        0.9934999942779541,
        0.9934999942779541
      ],
      "type": "VEC2",
      "bufferView": 2,
      "byteOffset": 39944
    },
    {
      "name": "Line132_1_2_indices",
      "componentType": 5123,
      "count": 11520,
      "min": [
        0
      ],
      "max": [
        3967
      ],
      "type": "SCALAR",
      "bufferView": 3,
      "byteOffset": 28032
    },
    {
      "name": "Line132_1_3_positions",
      "componentType": 5126,
      "count": 7872,
      "min": [
        10359.435546875,
        123.05940246582031,
        -1338.572265625
      ],
      "max": [
        10405.498046875,
        128.48019409179688,
        -1292.50927734375
      ],
      "type": "VEC3",
      "bufferView": 0,
      "byteOffset": 107532
    },
    {
      "name": "Line132_1_3_normals",
      "componentType": 5126,
      "count": 7872,
      "min": [
        -0.9983571171760559,
        -1,
        -0.9983571171760559
      ],
      "max": [
        0.9983571171760559,
        -0.057296980172395706,
        0.9983571171760559
      ],
      "type": "VEC3",
      "bufferView": 1,
      "byteOffset": 107532
    },
    {
      "name": "Line132_1_3_texcoords",
      "componentType": 5126,
      "count": 7872,
      "min": [
        0.21240000426769257,
        0.21240000426769257
      ],
      "max": [
        0.7875999808311462,
        0.7875999808311462
      ],
      "type": "VEC2",
      "bufferView": 2,
      "byteOffset": 71688
    },
    {
      "name": "Line132_1_3_indices",
      "componentType": 5123,
      "count": 23232,
      "min": [
        0
      ],
      "max": [
        7871
      ],
      "type": "SCALAR",
      "bufferView": 3,
      "byteOffset": 51072
    }
  ],
  "asset": {
    "generator": "obj2gltf",
    "version": "2.0"
  },
  "buffers": [
    {
      "name": "39",
      "byteLength": 740032,
      "uri": "data:application/octet-stream;base64,"
    }
  ],
  "bufferViews": [
    {
      "name": "bufferView_0",
      "buffer": 0,
      "byteLength": 201996,
      "byteOffset": 0,
      "byteStride": 12,
      "target": 34962
    },
    {
      "name": "bufferView_1",
      "buffer": 0,
      "byteLength": 201996,
      "byteOffset": 201996,
      "byteStride": 12,
      "target": 34962
    },
    {
      "name": "bufferView_2",
      "buffer": 0,
      "byteLength": 134664,
      "byteOffset": 403992,
      "byteStride": 8,
      "target": 34962
    },
    {
      "name": "bufferView_3",
      "buffer": 0,
      "byteLength": 97536,
      "byteOffset": 538656,
      "target": 34963
    },
    {
      "buffer": 0,
      "byteOffset": 636192,
      "byteLength": 79500
    },
    {
      "buffer": 0,
      "byteOffset": 715692,
      "byteLength": 24339
    }
  ],
  "images": [
    {
      "name": "11",
      "mimeType": "image/jpeg",
      "bufferView": 4
    },
    {
      "name": "0",
      "mimeType": "image/jpeg",
      "bufferView": 5
    }
  ],
  "materials": [
    {
      "name": "9",
      "pbrMetallicRoughness": {
        "baseColorTexture": {
          "index": 0
        },
        "baseColorFactor": [
          1,
          1,
          1,
          1
        ],
        "metallicFactor": 0,
        "roughnessFactor": 0.99
      },
      "emissiveFactor": [
        0,
        0,
        0
      ],
      "alphaMode": "OPAQUE",
      "doubleSided": false
    },
    {
      "name": "10",
      "pbrMetallicRoughness": {
        "baseColorFactor": [
          0.9608,
          0.9176,
          0.4706,
          1
        ],
        "metallicFactor": 0,
        "roughnessFactor": 0.92
      },
      "emissiveFactor": [
        0,
        0,
        0
      ],
      "alphaMode": "OPAQUE",
      "doubleSided": false
    },
    {
      "name": "12",
      "pbrMetallicRoughness": {
        "baseColorFactor": [
          0.9961,
          0.9961,
          0.9961,
          1
        ],
        "metallicFactor": 0,
        "roughnessFactor": 0.99
      },
      "emissiveFactor": [
        0,
        0,
        0
      ],
      "alphaMode": "OPAQUE",
      "doubleSided": false
    },
    {
      "name": "11",
      "pbrMetallicRoughness": {
        "baseColorTexture": {
          "index": 1
        },
        "baseColorFactor": [
          1,
          1,
          1,
          1
        ],
        "metallicFactor": 0,
        "roughnessFactor": 0.99
      },
      "emissiveFactor": [
        0,
        0,
        0
      ],
      "alphaMode": "OPAQUE",
      "doubleSided": false
    }
  ],
  "meshes": [
    {
      "name": "Line132_1",
      "primitives": [
        {
          "attributes": {
            "POSITION": 0,
            "NORMAL": 1,
            "TEXCOORD_0": 2
          },
          "indices": 3,
          "material": 0,
          "mode": 4
        },
        {
          "attributes": {
            "POSITION": 4,
            "NORMAL": 5,
            "TEXCOORD_0": 6
          },
          "indices": 7,
          "material": 1,
          "mode": 4
        },
        {
          "attributes": {
            "POSITION": 8,
            "NORMAL": 9,
            "TEXCOORD_0": 10
          },
          "indices": 11,
          "material": 2,
          "mode": 4
        },
        {
          "attributes": {
            "POSITION": 12,
            "NORMAL": 13,
            "TEXCOORD_0": 14
          },
          "indices": 15,
          "material": 3,
          "mode": 4
        }
      ]
    }
  ],
  "nodes": [
    {
      "name": "Line132",
      "mesh": 0
    }
  ],
  "samplers": [
    {
      "magFilter": 9729,
      "minFilter": 9986,
      "wrapS": 10497,
      "wrapT": 10497
    }
  ],
  "scene": 0,
  "scenes": [
    {
      "nodes": [
        0
      ]
    }
  ],
  "textures": [
    {
      "name": "11",
      "sampler": 0,
      "source": 0
    },
    {
      "name": "0",
      "sampler": 0,
      "source": 1
    }
  ]
}
